<svg xmlns="http://www.w3.org/2000/svg" xmlns:xlink="http://www.w3.org/1999/xlink" version="1.1" data-diagram-type="DESCRIPTION" style="width:367px;height:153px;background:#FFFFFF;" width="367px" height="153px" viewBox="0 0 367 153" zoomAndPan="magnify" preserveAspectRatio="none" contentStyleType="text/css"><?plantuml 1.2026.7beta8?><defs/><g font-family="sans-serif" lengthAdjust="spacing"><!--entity T--><g class="entity" data-qualified-name="T" id="ent0001" data-source-line="8"><rect x="111" y="7" width="125.219" height="36.297" fill="#FEFEFE" style="stroke:#333;stroke-width:0.5;" rx="2.5" ry="2.5"/><text x="121" y="29.995" fill="#000" font-size="14" textLength="105.219" font-family="Helvetica">JSON Template</text></g><!--entity I--><g class="entity" data-qualified-name="I" id="ent0002" data-source-line="9"><rect x="7" y="103.29" width="95.209" height="36.297" fill="#FEFEFE" style="stroke:#333;stroke-width:0.5;" rx="2.5" ry="2.5"/><text x="17" y="126.285" fill="#000" font-size="14" textLength="75.209" font-family="Helvetica">JSON Input</text></g><!--entity E--><g class="entity" data-qualified-name="E" id="ent0003" data-source-line="10"><rect x="136.89" y="103.29" width="73.43" height="36.297" fill="#FEFEFE" style="stroke:#333;stroke-width:0.5;" rx="2.5" ry="2.5"/><text x="146.89" y="126.285" fill="#000" font-size="14" textLength="53.43" font-family="Helvetica">transon</text></g><!--entity O--><g class="entity" data-qualified-name="O" id="ent0004" data-source-line="11"><rect x="245.81" y="103.29" width="107.589" height="36.297" fill="#FEFEFE" style="stroke:#333;stroke-width:0.5;" rx="2.5" ry="2.5"/><text x="255.81" y="126.285" fill="#000" font-size="14" textLength="87.589" font-family="Helvetica">JSON Output</text></g><!--link T to E--><g class="link" data-entity-1="ent0001" data-entity-2="ent0003" id="lnk5" data-source-line="12" data-link-type="dependency"><path d="M173.6,43.44 C173.6,60.35 173.6,80.96 173.6,97.94" style="stroke:#181818;stroke-width:1;" fill="none" id="T-to-E"/><polygon points="173.6,102.94,177.6,93.94,173.6,97.94,169.6,93.94,173.6,102.94" fill="#181818" style="stroke:#181818;stroke-width:1;stroke-linejoin:miter;stroke-miterlimit:10;"/></g><!--link I to E--><g class="link" data-entity-1="ent0002" data-entity-2="ent0003" id="lnk6" data-source-line="13" data-link-type="dependency"><path d="M102.48,121.44 C113.87,121.44 120.26,121.44 131.65,121.44" style="stroke:#181818;stroke-width:1;" fill="none" id="I-to-E"/><polygon points="136.65,121.44,127.65,117.44,131.65,121.44,127.65,125.44,136.65,121.44" fill="#181818" style="stroke:#181818;stroke-width:1;stroke-linejoin:miter;stroke-miterlimit:10;"/></g><!--link E to O--><g class="link" data-entity-1="ent0003" data-entity-2="ent0004" id="lnk7" data-source-line="14" data-link-type="dependency"><path d="M210.52,121.44 C222.12,121.44 228.72,121.44 240.32,121.44" style="stroke:#181818;stroke-width:1;" fill="none" id="E-to-O"/><polygon points="245.32,121.44,236.32,117.44,240.32,121.44,236.32,125.44,245.32,121.44" fill="#181818" style="stroke:#181818;stroke-width:1;stroke-linejoin:miter;stroke-miterlimit:10;"/></g><?plantuml-src PP2n4e9034Jx-ueCrbJs5ZemOY65_42403SSEUOkIE7uxmAZmaXIRTxk5l6DvWuTjk1hBEoWkO8IZIVbV-IEULCvstDniiOw66ejQrvGYRsHsB9SiIKuatcGw1nN7aUv85U6uAa0Zd-DkpYQTYBM5UG-r_qywgMMT72vfLV8gEqC2WM07h8DJhZhPMR9ceb3zfPd46r2QI_VLAeo2CTdS7WOZGc4JbUrp29QHFe6?></g></svg>